<?xml version="1.0" standalone="no"?>
<!DOCTYPE svg PUBLIC "-//W3C//DTD SVG 20010904//EN"
 "http://www.w3.org/TR/2001/REC-SVG-20010904/DTD/svg10.dtd">
<svg version="1.0" xmlns="http://www.w3.org/2000/svg"
 width="16.000000pt" height="16.000000pt" viewBox="0 0 16.000000 16.000000"
 preserveAspectRatio="xMidYMid meet">
<metadata>
Created by potrace 1.11, written by Peter Selinger 2001-2013
</metadata>
<g transform="translate(0.000000,16.000000) scale(0.002286,-0.002286)"
fill="#000000" stroke="none">
<path d="M555 6094 c-46 -23 -73 -53 -86 -93 -9 -27 -12 -505 -11 -1991 0
-1075 2 -1971 3 -1990 2 -29 -40 -119 -221 -475 -123 -242 -226 -444 -231
-450 -13 -18 0 -105 21 -135 11 -15 40 -38 63 -49 l43 -21 3365 0 3364 1 45
23 c55 27 89 83 86 135 -2 24 -83 194 -234 492 -127 251 -229 459 -225 462 3
4 6 899 6 1990 0 1884 -1 1985 -18 2020 -10 21 -34 50 -53 65 l-35 27 -2926 2
c-2635 3 -2929 1 -2956 -13z m5838 -132 c4 -1 7 -905 6 -2009 l0 -2008 226
-448 c125 -247 224 -452 220 -455 -9 -10 -6685 -10 -6691 0 -5 7 41 100 322
656 106 208 128 261 128 295 0 23 -1 924 -2 2001 -1 1287 1 1962 8 1966 8 5
5757 6 5783 2z"/>
<path d="M782 5909 c-40 -17 -73 -54 -88 -99 -12 -39 -12 -3589 1 -3625 16
-47 39 -74 81 -95 38 -20 78 -20 2723 -20 l2685 0 43 21 c31 15 50 33 65 63
l22 41 0 1785 c1 987 -3 1801 -7 1822 -10 40 -47 87 -87 109 -21 11 -455 14
-2712 14 -2494 1 -2689 -1 -2726 -16z m2800 -1030 c15 -17 17 -43 17 -172 -1
-139 -3 -154 -22 -174 -29 -32 -81 -31 -103 2 -21 33 -25 301 -4 340 21 40 80
42 112 4z m503 -224 c44 -43 35 -66 -73 -174 -105 -104 -127 -119 -164 -101
-21 9 -21 9 -3 -2 11 -7 47 -40 80 -73 232 -234 199 -629 -70 -824 -27 -20
-62 -42 -77 -49 -23 -9 -28 -18 -28 -45 0 -19 7 -48 15 -65 14 -28 14 -34 0
-61 -8 -17 -15 -52 -15 -79 0 -57 -25 -91 -68 -93 -134 -5 -302 -3 -325 4 -36
12 -47 34 -47 94 0 27 -7 58 -15 69 -15 22 -14 49 4 83 17 32 14 81 -6 88 -10
4 -43 23 -73 44 -278 189 -324 570 -98 824 61 68 155 131 223 150 17 4 37 10
45 12 113 32 265 19 374 -33 60 -29 59 -29 46 -5 -16 32 3 64 95 156 110 111
138 123 180 80z m-1003 -94 c49 -49 88 -96 88 -104 0 -55 -48 -95 -92 -78 -23
9 -128 108 -167 157 -11 15 -21 36 -21 48 0 34 36 66 73 66 26 0 45 -14 119
-89z"/>
<path d="M3473 4329 c-121 -15 -256 -112 -308 -222 -35 -75 -39 -97 -39 -198
0 -74 4 -94 32 -153 40 -86 115 -160 204 -203 36 -18 70 -38 75 -45 4 -7 10
-42 13 -78 l5 -65 65 -1 c36 0 71 2 78 4 7 3 12 24 12 59 0 30 5 63 10 74 6
11 41 34 78 51 111 53 191 147 228 266 17 57 12 180 -10 242 -65 179 -252 293
-443 269z"/>
</g>
</svg>
