<?xml version="1.0" encoding="iso-8859-1"?>
<!-- Generator: Adobe Illustrator 16.0.0, SVG Export Plug-In . SVG Version: 6.00 Build 0)  -->
<!DOCTYPE svg PUBLIC "-//W3C//DTD SVG 1.1//EN" "http://www.w3.org/Graphics/SVG/1.1/DTD/svg11.dtd">
<svg xmlns="http://www.w3.org/2000/svg" xmlns:xlink="http://www.w3.org/1999/xlink" version="1.1" id="Capa_1" x="0px" y="0px" width="512px" height="512px" viewBox="0 0 531.699 531.699" style="enable-background:new 0 0 531.699 531.699;" xml:space="preserve">
<g>
	<g>
		<path d="M268.104,202.437c-17.189,0-31.164,13.98-31.164,31.164c0,11.045,5.693,21.038,15.216,26.736    c1.936,1.165,4.045,2.13,6.254,2.858c2.209,0.728,3.71,2.795,3.71,5.115v7.762h11.981v-7.762c0-2.331,1.487-4.394,3.713-5.115    c2.215-0.749,4.318-1.693,6.254-2.858c9.534-5.698,15.209-15.691,15.209-26.736C299.272,216.417,285.293,202.437,268.104,202.437z    " fill="#16A085"/>
		<path d="M467.248,81.612H64.423c-6.811,0-12.345,5.531-12.345,12.34v268.257c0,6.824,5.534,12.351,12.345,12.351h402.825    c6.812,0,12.35-5.526,12.35-12.351V93.952C479.598,87.149,474.061,81.612,467.248,81.612z M262.564,164.238    c0-2.987,2.413-5.4,5.4-5.4c2.985,0,5.4,2.413,5.4,5.4v19.731c0,2.987-2.415,5.399-5.4,5.399c-2.987,0-5.4-2.412-5.4-5.399    V164.238z M221.112,179.861c2.118-2.112,5.524-2.112,7.636,0l10.46,10.452c2.112,2.106,2.112,5.521,0,7.636    c-1.052,1.05-2.434,1.582-3.818,1.582c-1.382,0-2.769-0.532-3.818-1.582l-10.46-10.452    C219.003,185.395,219.003,181.976,221.112,179.861z M289.602,269.607c-1.492,0.896-3.074,1.709-4.704,2.415v5.306    c1.239,0.991,2.072,2.446,2.072,4.155c0,1.688-0.833,3.153-2.072,4.145v6.297c0,2.984-2.41,5.399-5.4,5.399h-22.775    c-2.993,0-5.4-2.415-5.4-5.399v-6.297c-1.236-0.991-2.08-2.446-2.08-4.145s0.838-3.164,2.08-4.155v-5.306    c-1.632-0.706-3.203-1.519-4.698-2.415c-12.825-7.668-20.482-21.128-20.482-36.007c0-23.143,18.818-41.964,41.964-41.964    c23.147,0,41.963,18.821,41.963,41.964C310.073,248.479,302.416,261.939,289.602,269.607z M310.558,185.499l-12.455,12.45    c-1.045,1.05-2.426,1.582-3.808,1.582c-1.397,0-2.779-0.532-3.818-1.582c-2.125-2.114-2.125-5.524,0-7.636l12.451-12.451    c2.109-2.112,5.511-2.112,7.63,0C312.673,179.979,312.673,183.391,310.558,185.499z" fill="#16A085"/>
		<path d="M531.109,449.199l-34.235-67.615c-0.101-0.676-0.237-1.351-0.433-2.004c0.338-1.14,0.517-2.311,0.517-3.491V80.061    c0-6.813-5.526-12.343-12.34-12.343H47.06c-6.813,0-12.342,5.529-12.342,12.343v296.038c0,1.181,0.171,2.352,0.517,3.48    c-0.2,0.664-0.34,1.328-0.427,2.004L0.572,449.199C0.195,449.958,0,450.792,0,451.635c0,6.813,5.529,12.346,12.34,12.346h507.01    c6.823,0,12.35-5.532,12.35-12.346C531.684,450.792,531.483,449.958,531.109,449.199z M519.344,453.18H12.334    c-0.551,0-1.028-0.29-1.302-0.722l33.9-66.963c0.379-0.759,0.577-1.598,0.577-2.446c0-0.243,0.082-0.49,0.234-0.76    c0.976-1.688,0.976-3.755,0-5.432c-0.158-0.264-0.234-0.527-0.234-0.77V80.061c0-0.852,0.693-1.542,1.545-1.542h437.553    c0.854,0,1.54,0.691,1.54,1.542v296.038c0,0.242-0.073,0.495-0.231,0.759c-0.981,1.688-0.981,3.755,0,5.432    c0.147,0.285,0.231,0.527,0.231,0.771c0,0.849,0.2,1.692,0.58,2.446l33.908,66.952C520.372,452.896,519.887,453.18,519.344,453.18    z" fill="#16A085"/>
	</g>
</g>
<g>
</g>
<g>
</g>
<g>
</g>
<g>
</g>
<g>
</g>
<g>
</g>
<g>
</g>
<g>
</g>
<g>
</g>
<g>
</g>
<g>
</g>
<g>
</g>
<g>
</g>
<g>
</g>
<g>
</g>
</svg>
